<?xml version="1.0" encoding="UTF-8" standalone="no"?>
<!DOCTYPE svg PUBLIC "-//W3C//DTD SVG 20010904//EN"
              "http://www.w3.org/TR/2001/REC-SVG-20010904/DTD/svg10.dtd">

<svg xmlns="http://www.w3.org/2000/svg"
     width="3.96667in" height="1.37778in"
     viewBox="0 0 357 124">
  <path id="Selection #2"
        fill="none" stroke="black" stroke-width="1"
        d="M 70.00,1.00
           C 70.00,1.00 70.00,99.00 70.00,99.00
             74.18,94.90 78.63,86.29 81.80,81.00
             81.80,81.00 102.20,47.00 102.20,47.00
             104.41,43.31 110.81,31.06 114.21,29.60
             115.89,28.88 119.12,29.00 121.00,29.00
             121.00,29.00 135.00,29.00 135.00,29.00
             135.00,29.00 145.00,100.00 145.00,100.00
             145.00,100.00 125.00,100.00 125.00,100.00
             125.00,100.00 124.00,86.00 124.00,86.00
             124.00,86.00 104.00,86.00 104.00,86.00
             92.92,86.19 96.22,94.85 89.62,98.98
             86.89,100.69 73.90,100.00 70.00,100.00
             70.00,100.00 70.00,124.00 70.00,124.00
             70.00,124.00 355.00,124.00 355.00,124.00
             355.00,124.00 355.00,1.00 355.00,1.00
             355.00,1.00 70.00,1.00 70.00,1.00 Z
           M 193.00,28.30
           C 203.23,27.28 214.33,27.35 222.84,33.63
             239.08,45.30 233.79,72.72 222.84,86.00
             211.69,99.13 200.02,101.18 184.00,101.00
             158.44,100.70 151.88,77.96 158.75,57.00
             164.00,40.98 176.83,31.35 193.00,28.30 Z
           M 290.00,70.00
           C 290.00,70.00 306.00,100.00 306.00,100.00
             306.00,100.00 291.00,100.00 291.00,100.00
             289.04,99.99 286.30,100.17 284.63,99.01
             283.02,97.88 276.21,84.69 274.78,82.00
             273.14,78.92 271.76,75.17 267.96,74.33
             262.84,73.20 261.21,76.89 260.13,81.00
             260.13,81.00 258.35,89.00 258.35,89.00
             258.35,89.00 256.00,100.00 256.00,100.00
             256.00,100.00 237.00,100.00 237.00,100.00
             237.00,100.00 248.79,46.00 248.79,46.00
             249.48,42.82 251.48,31.74 253.72,29.99
             255.33,28.74 259.00,29.00 261.00,29.00
             273.29,28.98 295.50,26.45 304.47,35.53
             313.46,44.62 309.09,64.54 290.00,70.00 Z" />
</svg>
